<?xml version="1.0" standalone="no"?>
<!DOCTYPE svg PUBLIC "-//W3C//DTD SVG 20010904//EN"
 "http://www.w3.org/TR/2001/REC-SVG-20010904/DTD/svg10.dtd">
<svg version="1.0" xmlns="http://www.w3.org/2000/svg"
 width="1055.000000pt" height="1055.000000pt" viewBox="0 0 1055.000000 1055.000000"
 preserveAspectRatio="xMidYMid meet">
<metadata>
Created by potrace 1.14, written by Peter Selinger 2001-2017
</metadata>
<g transform="translate(0.000000,1055.000000) scale(0.100000,-0.100000)"
fill="#000000" stroke="none">
<path d="M3433 9323 c-23 -8 -65 -34 -91 -58 -146 -132 -121 -366 49 -460 51
-28 62 -30 189 -35 l135 -5 -2 -1143 c-1 -1208 -1 -1201 -49 -1362 -31 -100
-37 -113 -514 -1080 -205 -415 -454 -921 -555 -1125 -100 -203 -286 -581 -413
-840 -270 -548 -277 -567 -270 -759 8 -205 74 -355 217 -496 90 -88 158 -131
278 -174 l88 -31 2080 -3 c2339 -3 2163 -8 2330 73 50 24 116 66 149 92 74 61
164 180 201 267 l29 67 600 -599 c684 -683 652 -657 801 -657 78 0 97 4 147
28 72 36 134 97 167 167 36 77 37 211 2 285 -19 40 -202 228 -948 976 l-925
926 60 84 c253 357 376 779 359 1229 -7 172 -23 280 -68 448 -225 851 -997
1459 -1884 1485 l-80 2 -3 1073 -2 1072 154 0 154 0 63 33 c77 39 132 110 150
194 31 136 -52 280 -188 329 -31 11 -247 13 -1203 13 -1008 -1 -1171 -3 -1207
-16z m2423 -50 c48 -25 101 -83 120 -129 19 -44 18 -136 -2 -182 -19 -47 -67
-97 -119 -125 l-40 -22 -1175 0 -1175 0 -41 22 c-80 43 -134 126 -134 206 0
90 45 171 120 215 l45 27 345 5 c190 3 721 6 1180 5 l835 0 41 -22z m-393
-635 c4 -66 7 -305 7 -530 l0 -408 -370 0 c-240 0 -370 -4 -370 -10 0 -5 0
-13 0 -17 0 -5 165 -10 367 -13 l368 -5 3 -427 2 -428 -369 0 c-304 0 -370 -2
-374 -14 -13 -34 13 -36 380 -36 l363 0 0 -65 0 -65 -47 0 c-83 -1 -260 -28
-383 -60 -396 -101 -782 -340 -1038 -643 -199 -235 -352 -537 -427 -844 l-17
-73 -219 0 c-120 0 -219 2 -219 4 0 2 125 257 278 568 153 310 290 601 305
645 55 168 55 157 63 1396 l7 1147 842 0 842 0 6 -122z m351 -2074 c725 -100
1345 -611 1585 -1309 52 -150 87 -321 103 -498 36 -416 -87 -883 -323 -1231
-41 -59 -81 -118 -89 -132 -15 -24 -6 -33 921 -961 1042 -1044 975 -967 973
-1108 -2 -201 -185 -334 -384 -280 l-65 18 -950 948 c-523 522 -955 949 -962
949 -6 0 -47 -21 -90 -47 -206 -122 -449 -208 -708 -249 -149 -24 -420 -24
-575 -1 -567 86 -1059 404 -1372 887 -205 316 -308 670 -308 1062 0 201 19
349 65 518 265 964 1186 1570 2179 1434z m-2267 -1641 c-3 -16 -11 -95 -18
-178 l-12 -150 -360 -730 c-500 -1015 -543 -1104 -568 -1176 -31 -87 -34 -302
-6 -394 65 -209 200 -369 392 -461 l69 -34 -242 0 c-274 0 -340 9 -457 65
-177 85 -320 259 -369 451 -21 80 -21 251 -1 328 22 85 49 143 320 691 397
803 621 1258 711 1443 l84 172 231 0 231 0 -5 -27z"/>
<path d="M5315 5964 c-507 -91 -911 -433 -1073 -909 -55 -160 -67 -241 -67
-440 0 -199 12 -280 67 -440 240 -707 1004 -1089 1718 -859 379 122 694 417
844 790 64 160 87 278 93 464 8 251 -29 426 -136 645 -197 401 -563 672 -1010
749 -116 20 -325 20 -436 0z m850 -375 c71 -20 124 -65 156 -133 48 -102 32
-204 -46 -281 -95 -96 -255 -96 -344 -1 -14 14 -28 26 -32 26 -3 0 -88 -48
-188 -106 -145 -85 -181 -110 -175 -123 40 -92 48 -130 49 -241 0 -95 -4 -127
-23 -182 -47 -137 -149 -258 -270 -321 -101 -53 -167 -69 -288 -68 -57 0 -104
-2 -104 -5 0 -3 -23 -94 -51 -202 l-52 -196 24 -15 c60 -38 107 -97 124 -155
19 -64 14 -146 -9 -146 -40 0 -366 250 -366 280 0 14 83 42 132 44 26 1 50 5
52 7 6 5 106 384 106 399 0 5 -5 10 -11 10 -7 0 -44 15 -83 34 -195 95 -316
290 -316 509 1 113 11 161 57 257 27 57 55 94 114 152 l78 78 -75 127 c-72
123 -82 152 -58 160 12 4 14 1 110 -164 43 -76 63 -101 74 -97 201 83 362 82
530 -2 76 -38 167 -115 201 -170 12 -19 27 -34 34 -32 6 2 89 48 184 103 l172
100 -8 45 c-17 100 0 171 55 232 68 76 154 103 247 77z"/>
</g>
</svg>
