<?xml version="1.0" encoding="UTF-8"?><svg id="Layer_1" xmlns="http://www.w3.org/2000/svg" xmlns:xlink="http://www.w3.org/1999/xlink" viewBox="0 0 1055.07 897.02"><defs><style>.cls-1{clip-path:url(#clippath);}.cls-2{fill:none;}.cls-2,.cls-3,.cls-4,.cls-5,.cls-6{stroke-width:0px;}.cls-7{stroke:#ecedee;stroke-miterlimit:21.67;stroke-width:6.5px;}.cls-7,.cls-5{fill:#041529;}.cls-8{clip-path:url(#clippath-1);}.cls-9{clip-path:url(#clippath-4);}.cls-10{clip-path:url(#clippath-3);}.cls-11{clip-path:url(#clippath-2);}.cls-3{fill:#416fa7;}.cls-4{fill:#30e0c9;}.cls-6{fill:#feffff;}</style><clipPath id="clippath"><rect class="cls-2" x="190.4" y="41.41" width="542" height="760"/></clipPath><clipPath id="clippath-1"><rect class="cls-2" x="402.4" y="360.41" width="337" height="337"/></clipPath><clipPath id="clippath-2"><rect class="cls-2" x="377.4" y="346.41" width="263" height="264" transform="translate(-171.82 321.97) rotate(-30.29)"/></clipPath><clipPath id="clippath-3"><rect class="cls-2" x="377.4" y="346.41" width="263" height="264" transform="translate(-171.82 321.97) rotate(-30.29)"/></clipPath><clipPath id="clippath-4"><rect class="cls-2" x="352.4" y="313.41" width="551" height="564"/></clipPath></defs><path class="cls-4" d="m1028.01,246.61c101.59,255.82-101.57,476.68-298.44,483.19-134.55,4.46-161.06,65.63-335.08,142.46C222.55,948.18-13.35,845.14.59,623.31,14.53,401.47,123.29,217,318.47,89.07,566.51-73.49,926.44-9.22,1028.01,246.61Z"/><g class="cls-1"><path class="cls-5" d="m658.68,799.04h-394.54c-52.9,0-87.34-55.63-63.91-103.05l107.18-217.49h308l107.18,217.49c23.43,47.42-11,103.05-63.91,103.05Z"/><path class="cls-3" d="m437.6,97.04l-.53,221.41c-.05,17.01-3.97,33.75-11.48,49.01l-161.88,328.54c-23.44,47.42,11,103.05,63.91,103.05h-63.48c-52.9,0-87.34-55.63-63.91-103.05l161.88-328.54c7.51-15.26,11.43-32,11.48-49.01l.53-221.41s63.48,0,63.48,0Z"/><path class="cls-5" d="m658.7,801.41h-394.58c-25.65,0-49.04-13.03-62.57-34.86-13.53-21.83-14.81-48.6-3.43-71.62l161.88-328.54c7.3-14.82,11.18-31.39,11.23-47.93l.53-223.79h179.29l.53,223.79c.04,16.54,3.92,33.11,11.23,47.93l161.88,328.54c11.38,23.02,10.1,49.79-3.43,71.62-13.53,21.83-36.92,34.86-62.57,34.86ZM376.47,99.41l-.52,219.07c-.04,17.26-4.1,34.55-11.72,50.01l-161.88,328.54c-10.65,21.54-9.45,46.6,3.21,67.02,12.66,20.43,34.55,32.62,58.55,32.62h394.58c24,0,45.89-12.2,58.55-32.62,12.66-20.42,13.86-45.48,3.21-67.02l-161.88-328.55c-7.62-15.46-11.67-32.75-11.72-50.01l-.52-219.07h-169.86Z"/><path class="cls-3" d="m355.6,41.41c-14.61,0-26.45,11.86-26.45,26.49s11.84,26.49,26.45,26.49h58.19v-52.98h-58.19Z"/><path class="cls-5" d="m575.14,99.41h-222.19c-15.89,0-28.81-12.95-28.81-28.86s12.93-28.86,28.81-28.86h222.19c15.89,0,28.81,12.95,28.81,28.86s-12.93,28.86-28.81,28.86Zm-222.19-52.98c-13.28,0-24.09,10.82-24.09,24.12s10.8,24.12,24.09,24.12h222.19c13.28,0,24.09-10.82,24.09-24.12s-10.8-24.12-24.09-24.12h-222.19Z"/><path class="cls-5" d="m548.69,210.67h-74.06c-1.3,0-2.36-1.06-2.36-2.37s1.06-2.37,2.36-2.37h74.06c1.3,0,2.36,1.06,2.36,2.37s-1.06,2.37-2.36,2.37Z"/><path class="cls-5" d="m548.69,300.74h-74.06c-1.3,0-2.36-1.06-2.36-2.37s1.06-2.37,2.36-2.37h74.06c1.3,0,2.36,1.06,2.36,2.37s-1.06,2.37-2.36,2.37Z"/><path class="cls-5" d="m569.85,390.8h-95.22c-1.3,0-2.36-1.06-2.36-2.37s1.06-2.37,2.36-2.37h95.22c1.3,0,2.36,1.06,2.36,2.37s-1.06,2.37-2.36,2.37Z"/><path class="cls-5" d="m612.18,480.87h-301.54c-1.3,0-2.36-1.06-2.36-2.37s1.06-2.37,2.36-2.37h301.54c1.3,0,2.36,1.06,2.36,2.37s-1.06,2.37-2.36,2.37Z"/><path class="cls-5" d="m659.79,570.94h-111.09c-1.3,0-2.36-1.06-2.36-2.37s1.06-2.37,2.36-2.37h111.09c1.3,0,2.36,1.06,2.36,2.37s-1.06,2.37-2.36,2.37Z"/><path class="cls-5" d="m702.11,661.01h-111.09c-1.3,0-2.36-1.06-2.36-2.37s1.06-2.37,2.36-2.37h111.09c1.3,0,2.36,1.06,2.36,2.37s-1.06,2.37-2.36,2.37Z"/></g><g class="cls-8"><g id="Layer_2-i3"><g id="circle_1-i3"><circle class="cls-7" cx="570.9" cy="528.91" r="165.25"/></g></g></g><g class="cls-11"><g class="cls-10"><g id="fc02017b-5a37-4377-9ad3-8e1896db0307-i4"><g id="f5b0987f-b2ed-46cb-a4df-1b553b2dfda6-i4"><path class="cls-3" d="m491.55,540.36c1.16-.68,2.65-.29,3.33.87.33.56.42,1.22.25,1.85l-21.62,82.16c-.36,1.29-1.71,2.05-3.01,1.69-1.26-.35-2.02-1.65-1.71-2.92l21.62-82.16c.16-.63.57-1.16,1.13-1.49Z"/><path class="cls-3" d="m458.26,602.59c1.91-1.12,3.96-1.98,6.1-2.56,6.44-1.78,13.32-.91,19.11,2.41h0c12.05,6.89,16.22,22.24,9.32,34.29-6.9,12.05-22.26,16.23-34.31,9.34-12.05-6.89-16.22-22.24-9.32-34.29,2.18-3.8,5.32-6.97,9.1-9.19Zm22.98,39.2c9.67-5.68,12.91-18.11,7.24-27.77-1.79-3.06-4.36-5.59-7.44-7.35h0c-9.73-5.55-22.14-2.16-27.7,7.57-5.56,9.73-2.18,22.13,7.55,27.68,6.31,3.6,14.07,3.55,20.34-.13Z"/><path class="cls-3" d="m436.59,393.78c1.16-.68,2.65-.29,3.33.87l42.83,73.33c.68,1.16.29,2.65-.88,3.33s-2.65.29-3.33-.87l-42.83-73.33c-.68-1.16-.29-2.65.88-3.33Z"/><path class="cls-3" d="m425.49,374.26c12.02-7,27.43-2.94,34.42,9.07,6.99,12.01,2.92,27.41-9.1,34.41-1.88,1.1-3.9,1.95-6.01,2.52h0c-13.41,3.68-27.25-4.21-30.92-17.61-3.01-10.99,1.76-22.64,11.61-28.39h0Zm22.95,39.23c9.72-5.67,13-18.13,7.33-27.84s-18.13-12.98-27.85-7.31c-9.72,5.67-13,18.13-7.33,27.84,4.64,7.95,14.04,11.79,22.93,9.37h0c1.72-.47,3.38-1.16,4.92-2.06h0Z"/><path class="cls-3" d="m535.96,481.92l73.4-42.87c1.16-.68,2.65-.29,3.33.87s.29,2.65-.88,3.33l-73.4,42.87c-1.16.68-2.65.29-3.33-.87s-.29-2.65.88-3.33Z"/><path class="cls-3" d="m472.85,453.59c27.5-16.04,62.78-6.77,78.81,20.7,16.02,27.47,6.72,62.74-20.78,78.79-27.5,16.04-62.78,6.77-78.81-20.7-7.69-13.19-9.83-28.9-5.94-43.67,3.88-14.79,13.49-27.42,26.71-35.11Zm55.63,95.25c25.15-14.72,33.63-47.02,18.92-72.15-14.7-25.13-47.02-33.57-72.17-18.85s-33.63,47.02-18.92,72.15c7.06,12.06,18.63,20.83,32.16,24.37,13.54,3.55,27.94,1.57,40.01-5.52h0Z"/><path class="cls-3" d="m597.53,419.35c12.01-7.03,27.44-3,34.47,9,7.02,12,2.98,27.43-9.04,34.46-12.01,7.03-27.44,3-34.47-9-5.76-9.84-4.18-22.32,3.85-30.43,1.55-1.56,3.29-2.92,5.19-4.03Zm22.9,39.26c9.68-5.66,12.95-18.09,7.3-27.76-5.65-9.67-18.08-12.93-27.77-7.27-1.52.89-2.92,1.97-4.16,3.22-7.89,7.97-7.83,20.81.13,28.7,0,0,0,0,0,0h0c6.52,6.45,16.56,7.72,24.5,3.11Z"/><ellipse class="cls-3" cx="470.98" cy="624.3" rx="22.74" ry="22.72" transform="translate(-250.58 322.76) rotate(-30.29)"/><ellipse class="cls-3" cx="438.17" cy="395.99" rx="22.74" ry="22.72" transform="translate(-139.91 275.05) rotate(-30.29)"/><ellipse class="cls-3" cx="501.89" cy="503.31" rx="55.23" ry="55.18" transform="translate(-185.34 321.83) rotate(-30.29)"/><ellipse class="cls-3" cx="610.22" cy="441.07" rx="22.74" ry="22.72" transform="translate(-139.16 367.98) rotate(-30.29)"/></g></g></g></g><g class="cls-9"><path class="cls-3" d="m891.82,819.69l-181.49-181.45c68.22-86.51,53.39-211.94-33.13-280.15-86.51-68.21-211.95-53.39-280.17,33.12-68.22,86.51-53.39,211.94,33.13,280.15,67.02,52.84,160.23,57.2,231.89,10.84l183.65,183.62c12.74,12.73,33.39,12.73,46.13-.01,12.73-12.74,12.73-33.39-.01-46.12h0Zm-472.18-304.88c-.11-74.1,59.88-134.25,133.98-134.36,74.1-.11,134.26,59.87,134.37,133.97.05,36.73-14.95,71.87-41.52,97.23-1.75,1.19-3.39,2.54-4.88,4.05-.67.65-1.28,1.36-1.86,2.03-56.82,47.49-141.39,39.93-188.88-16.9-20.17-24.13-31.21-54.58-31.2-86.02Z"/><path class="cls-5" d="m868.85,877.41c-9.19.03-18.02-3.61-24.51-10.13l-182.48-182.48c-93.9,59.59-218.33,31.78-277.93-62.11-59.6-93.89-31.79-218.32,62.12-277.91,93.9-59.59,218.33-31.78,277.93,62.11,20.49,32.27,31.36,69.71,31.35,107.94.14,44.66-14.73,88.06-42.23,123.25l180.25,180.24c13.5,13.56,13.45,35.5-.12,49-6.48,6.45-15.25,10.08-24.39,10.09Zm-206.58-197.79l184.81,184.79c11.95,11.94,31.31,11.93,43.25-.01,11.94-11.95,11.94-31.31-.01-43.25l-182.76-182.77,1.11-1.4c27.65-34.71,42.66-77.8,42.53-122.18.08-109.08-88.29-197.58-197.38-197.66-109.09-.08-197.59,88.28-197.67,197.37-.08,109.08,88.29,197.58,197.38,197.66,38.11.03,75.42-10.97,107.43-31.67l1.32-.89Zm-108.45-28.62c-75.34.12-136.52-60.85-136.64-136.19-.12-75.34,60.86-136.51,136.2-136.63,75.34-.12,136.52,60.85,136.64,136.19.06,37.29-15.15,72.98-42.09,98.76l-.26.2c-1.64,1.12-3.18,2.38-4.6,3.77-.61.63-1.17,1.28-1.74,2.03l-.24.24c-24.49,20.43-55.37,31.62-87.27,31.63Zm0-268.31c-72.98-.07-132.21,59.03-132.28,132.01-.07,72.98,59.04,132.2,132.02,132.27,30.99.03,61-10.83,84.79-30.68.59-.69,1.19-1.38,1.86-2.03,1.55-1.54,3.24-2.94,5.04-4.17,26.07-24.79,40.79-59.21,40.71-95.18-.03-72.98-59.17-132.14-132.15-132.22h0Z"/><path class="cls-6" d="m406.07,427.83s-8.1,2.03-10.13-6.08c-1.3-5.22,3.28-15.49,6.7-22.13,2.11-4.07,4.85-7.79,8.1-11.02,13.63-13.61,55.41-51.56,99.79-53.87,1.12-.06,2.07.8,2.13,1.91.04.71-.3,1.4-.9,1.79-39.49,26.14-86.46,62.35-105.7,89.39Z"/><path class="cls-6" d="m396.25,450.69s8.4-13.99-4.39-16.2-13.71,16.97-12.52,23.27,7.49,5.08,9.28,4.05,7.64-11.12,7.64-11.12Z"/></g></svg>